<svg color="var(--primary-color)" viewBox="0 0 80 80" xmlns="http://www.w3.org/2000/svg">
  <path d="M28.629 37.865c-.407-2.777-1.69-5.304-3.62-7.13-1.931-1.826-4.385-2.834-6.923-2.843H5.729a5.416 5.416 0 0 1-2.122-1.706 6.22 6.22 0 0 1-1.137-2.618h19.518c2.54.009 4.992 1.016 6.923 2.843 1.931 1.826 3.214 4.353 3.62 7.13l1.416 9.486h-4.548l-.77-5.162zM19.788 6.919H7.499a5.727 5.727 0 0 1-2.131-1.72A6.542 6.542 0 0 1 4.17 2.595h19.52c2.532-.006 4.984.987 6.916 2.801 1.931 1.815 3.217 4.332 3.626 7.101l.38 2.541c-1.485.288-2.95.691-4.383 1.207-.513-2.645-1.83-5.014-3.731-6.712-1.9-1.697-4.27-2.62-6.711-2.614zM67.524 35.244l-1.622-2.862c-3.208-5.596-7.97-9.885-13.57-12.22-.212-.079-.4-.223-.54-.416a1.382 1.382 0 0 1-.255-.674 24.51 24.51 0 0 1 .239-6.787c1.376-.796 2.83-1.422 4.248-1.635-.68 2.74-.879 5.6-.584 8.422.025.247.114.48.255.674.14.193.328.337.54.416 5.6 2.335 10.362 6.624 13.57 12.22l1.622 2.862c.103.19.248.35.42.463.173.114.369.177.57.186h-3.903a1.124 1.124 0 0 1-.569-.186 1.28 1.28 0 0 1-.42-.463zM58.478 75.138c-.018-5.512 1.815-10.834 5.14-14.932a25.2 25.2 0 0 0 3.689-6.061c.094-.222.244-.41.432-.54.187-.131.405-.2.626-.2h3.903a1.084 1.084 0 0 0-.627.2c-.188.13-.338.318-.433.54a25.196 25.196 0 0 1-3.688 6.061c-3.325 4.098-5.158 9.42-5.14 14.932a2.4 2.4 0 0 1-.6 1.602 1.954 1.954 0 0 1-1.446.665h-3.902c.542 0 1.062-.24 1.446-.665a2.4 2.4 0 0 0 .6-1.602zM73.756 52.274v-15.35c0-.617-.459-1.032-1.016-1.032h3.903c.557 0 1.015.415 1.015 1.032v15.35a1.201 1.201 0 0 1-.298.797.979.979 0 0 1-.718.334H72.74a.978.978 0 0 0 .717-.334c.19-.212.298-.498.299-.797zM32.782 75.135c.002-1.29.464-2.525 1.287-3.437.822-.912 1.938-1.426 3.101-1.428h3.903c-1.164.002-2.279.516-3.102 1.428-.822.912-1.285 2.148-1.286 3.437 0 .602-.216 1.178-.6 1.604a1.955 1.955 0 0 1-1.447.666h-3.902a1.955 1.955 0 0 0 1.446-.666c.384-.426.6-1.002.6-1.604z" fill="currentColor" fill-opacity=".25"/>
  <path d="M54.738 31.637c.31 0 .608.136.828.38.22.243.343.573.343.917a2.97 2.97 0 0 0 .751 1.973c.476.522 1.118.815 1.787.815.67 0 1.312-.293 1.787-.815a2.97 2.97 0 0 0 .752-1.973c0-.344.123-.674.343-.917.22-.244.517-.38.828-.38.31 0 .608.136.828.38.219.243.342.573.342.917-.008 1.428-.526 2.795-1.44 3.802-.914 1.006-2.15 1.571-3.44 1.571-1.289 0-2.525-.565-3.44-1.572-.914-1.006-1.431-2.373-1.44-3.8 0-.345.124-.675.343-.918.22-.244.518-.38.828-.38z" fill="currentColor"/>
  <path d="M51.471 75.135c0-.601-.216-1.178-.6-1.604a1.956 1.956 0 0 0-1.446-.666h-8.352a1.956 1.956 0 0 0-1.446.666 2.403 2.403 0 0 0-.6 1.604c-.002 1.29-.464 2.526-1.287 3.438-.822.912-1.938 1.425-3.102 1.427h-4.475c-1.163-.001-2.279-.514-3.101-1.425-.823-.912-1.286-2.147-1.287-3.436a6.414 6.414 0 0 0-.672-2.89 5.691 5.691 0 0 0-1.861-2.156c-8.257-5.686-13.186-15.09-13.186-25.156 0-.316.006-.631.016-.946-1.812-.25-3.479-1.223-4.688-2.739-1.21-1.515-1.879-3.467-1.881-5.49 0-.344.123-.674.343-.917.22-.243.517-.38.828-.38.31 0 .608.137.828.38.22.243.343.573.343.917.001 1.371.448 2.696 1.259 3.731.81 1.036 1.93 1.714 3.155 1.91.22-1.92.62-3.81 1.19-5.638-1.21-1.296-1.997-3-2.238-4.846H7.759c-2.06-.008-4.032-.92-5.486-2.537C.819 26.767 0 24.579 0 22.297c-.001-.347.121-.68.34-.928.22-.247.518-.39.83-.395h19.426a8.66 8.66 0 0 1-1.446-3.676h-.566c-3.88 0-7.105-3.243-7.671-7.351H9.462c-2.06-.008-4.033-.92-5.487-2.537-1.454-1.616-2.271-3.804-2.272-6.086-.001-.347.12-.68.34-.928.22-.247.517-.39.83-.395h20.818c3.087-.008 6.075 1.203 8.43 3.415 2.355 2.211 3.923 5.28 4.422 8.655l.39 2.603a29.82 29.82 0 0 1 3.34-.187c1.844.001 3.685.158 5.508.469 1.302-2.16 3.065-3.93 5.132-5.155 2.067-1.225 4.374-1.866 6.718-1.867.183 0 .364.048.527.14.164.09.306.223.415.386.109.164.181.353.212.553.031.2.02.405-.034.599l-.321 1.161a21.545 21.545 0 0 0-.73 7.226c5.805 2.605 10.73 7.157 14.083 13.019l1.278 2.28h3.581c.437-.01.87.078 1.276.256a3.28 3.28 0 0 1 1.088.78c.312.337.56.74.731 1.185.171.445.26.923.263 1.406v15.35c-.002.986-.356 1.932-.985 2.63-.629.699-1.482 1.092-2.373 1.096h-3.645a26.476 26.476 0 0 1-3.738 5.95c-2.937 3.621-4.554 8.322-4.537 13.19-.001 1.289-.464 2.525-1.286 3.436-.823.911-1.938 1.423-3.102 1.424H55.86c-1.163-.002-2.279-.515-3.101-1.427-.823-.912-1.285-2.149-1.287-3.438zM7.76 28.325h9.224c.31 0 .608.136.828.38.22.243.343.573.343.917 0 .344-.124.674-.343.917-.22.243-.518.38-.828.38h-5.39c.246 1.35.909 2.562 1.873 3.43.965.868 2.172 1.337 3.415 1.327h9.223c.31 0 .608.136.828.38.22.243.343.573.343.917 0 .344-.123.674-.343.917-.22.244-.517.38-.828.38h-6.277c.537 2.595 2.704 4.757 5.288 4.757h8.832L32.53 33.54c-.406-2.776-1.689-5.303-3.62-7.13-1.93-1.826-4.384-2.833-6.923-2.842H2.47c.247 1.35.91 2.562 1.875 3.43.965.868 2.172 1.337 3.415 1.326zm15.125-8.2c1.549-1.098 3.194-2.179 4.91-2.828H21.53a7.273 7.273 0 0 0 1.355 2.827zm11.35-7.628c-.41-2.769-1.696-5.286-3.628-7.1-1.931-1.815-4.383-2.808-6.915-2.802H4.17c.537 2.594 2.705 4.756 5.29 4.756h9.224c.31 0 .608.137.828.38.22.244.343.574.343.918 0 .344-.124.674-.343.917-.22.243-.518.38-.828.38h-5.39c.536 2.595 2.703 4.757 5.288 4.757h9.224c.152-.005.302.023.444.084.141.06.27.152.38.269.108.116.195.256.255.41a1.358 1.358 0 0 1-.003.99c-.063.158-.155.3-.27.416a30.207 30.207 0 0 1 6-1.834l-.38-2.54zm21.625 64.908h4.475c.543 0 1.063-.24 1.447-.665a2.4 2.4 0 0 0 .6-1.602c-.018-5.512 1.814-10.834 5.14-14.932a25.196 25.196 0 0 0 3.688-6.061 1.26 1.26 0 0 1 .432-.54c.188-.131.405-.2.627-.2h4.374a.979.979 0 0 0 .718-.334c.19-.212.297-.498.298-.797v-15.35c0-.617-.458-1.032-1.016-1.032h-4.226a1.125 1.125 0 0 1-.568-.186 1.284 1.284 0 0 1-.421-.463l-1.623-2.862c-3.207-5.596-7.97-9.885-13.569-12.22a1.185 1.185 0 0 1-.54-.417 1.384 1.384 0 0 1-.255-.673 24.452 24.452 0 0 1 .584-8.422c-2.855.434-5.472 1.999-7.367 4.404-1.896 2.406-2.942 5.49-2.946 8.683 0 .345-.124.674-.343.918-.22.243-.518.38-.828.38-.31-.001-.609-.138-.828-.381a1.371 1.371 0 0 1-.343-.918c0-2.186.41-4.35 1.207-6.35a31.084 31.084 0 0 0-4.302-.304c-5.28-.013-10.47 1.509-15.054 4.413 2.45.689 4.665 2.154 6.374 4.218 1.71 2.064 2.837 4.635 3.246 7.399l1.643 10.92c.028.192.019.388-.026.576a1.448 1.448 0 0 1-.236.515 1.24 1.24 0 0 1-.397.357 1.114 1.114 0 0 1-.495.143H25.117c-3.88 0-7.105-3.244-7.67-7.352h-.566a7.111 7.111 0 0 1-3.435-.905 27.867 27.867 0 0 0 11.033 30.528c1.115.762 2.036 1.828 2.673 3.097a9.212 9.212 0 0 1 .965 4.15c.001.6.217 1.177.6 1.602.384.424.904.663 1.446.663h4.476a1.955 1.955 0 0 0 1.446-.666c.384-.426.6-1.002.6-1.604.001-1.29.464-2.525 1.286-3.437.823-.912 1.938-1.426 3.102-1.428h8.352c1.163.002 2.279.516 3.102 1.428.822.912 1.285 2.148 1.286 3.437 0 .602.216 1.178.6 1.604.383.425.904.665 1.446.666z" fill="currentColor"/>
</svg>
