<svg width="302" height="300" xmlns="http://www.w3.org/2000/svg"><defs><linearGradient x1="50%" y1="100%" x2="50%" y2="0%" id="a"><stop stop-color="gray" stop-opacity=".25" offset="0%"/><stop stop-color="gray" stop-opacity=".12" offset="54%"/><stop stop-color="gray" stop-opacity=".1" offset="100%"/></linearGradient><linearGradient x1="-.007%" y1="50%" y2="50%" id="b"><stop stop-color="gray" stop-opacity=".25" offset="0%"/><stop stop-color="gray" stop-opacity=".12" offset="54%"/><stop stop-color="gray" stop-opacity=".1" offset="100%"/></linearGradient><linearGradient x1="0%" y1="49.996%" y2="49.996%" id="c"><stop stop-color="gray" stop-opacity=".25" offset="0%"/><stop stop-color="gray" stop-opacity=".12" offset="54%"/><stop stop-color="gray" stop-opacity=".1" offset="100%"/></linearGradient><linearGradient x1="0%" y1="50%" y2="50%" id="d"><stop stop-color="gray" stop-opacity=".25" offset="0%"/><stop stop-color="gray" stop-opacity=".12" offset="54%"/><stop stop-color="gray" stop-opacity=".1" offset="100%"/></linearGradient><linearGradient x1="0%" y1="50%" y2="50%" id="e"><stop stop-color="gray" stop-opacity=".25" offset="0%"/><stop stop-color="gray" stop-opacity=".12" offset="54%"/><stop stop-color="gray" stop-opacity=".1" offset="100%"/></linearGradient><linearGradient x1="73.613%" y1="96.076%" x2="16.596%" y2="42.518%" id="f"><stop stop-color="gray" stop-opacity=".25" offset="0%"/><stop stop-color="gray" stop-opacity=".12" offset="54%"/><stop stop-color="gray" stop-opacity=".1" offset="100%"/></linearGradient><linearGradient x1="33.431%" y1="126.354%" x2="70.239%" y2="38.162%" id="g"><stop stop-color="gray" stop-opacity=".25" offset="0%"/><stop stop-color="gray" stop-opacity=".12" offset="54%"/><stop stop-color="gray" stop-opacity=".1" offset="100%"/></linearGradient></defs><g fill="none" fill-rule="evenodd"><path fill="url(#a)" d="M142.494 164.988h30.626v135h-30.626z"/><path fill="#ECEFF1" d="M145.313 164.988h25.79v132.584h-25.79z"/><path d="M244.366 59.807H106.44a36.6 36.6 0 0 0-13.757 3.065c-14.02 6.214-22.18 15.968-24.485 37.597v49.971l-36.548-.387c-7.35 0-10.037 11.556-10.037 19.367H268.49V85.44c0-14.156-10.786-25.633-24.124-25.633z" fill="url(#b)"/><path d="M111.46 65.045h136.66c9.245 0 16.74 7.495 16.74 16.741v83.202h-153.4V65.045z" fill="#199473"/><path d="M108.23 65.045c20.476 0 37.075 16.599 37.075 37.074v44.725c0 10.02-8.124 18.144-18.145 18.144H89.3c-10.02 0-18.144-8.124-18.144-18.144v-44.725c0-20.475 16.599-37.074 37.074-37.074z" fill="#199473"/><path d="M108.23 65.045c20.476 0 37.075 16.599 37.075 37.074v44.725c0 10.02-8.124 18.144-18.145 18.144H89.3c-10.02 0-18.144-8.124-18.144-18.144v-44.725c0-20.475 16.599-37.074 37.074-37.074z" fill="#000" opacity=".2"/><path fill="url(#a)" d="M206.971 51.749h-30.625v50.774h13.9V74.51h16.725z"/><path fill="#FFCC80" d="M204.551 51.749h-25.789v46.745h9.67v-25.79h16.12z"/><path fill="url(#c)" transform="rotate(-83.06 95.035 102.889)" d="M79.257 77.216h31.556v51.346H79.257z"/><path fill="#FAF8E4" d="M68.43 114.212l3.558-29.233 49.241 5.994-3.558 29.233z"/><g opacity=".6" fill="#199473"><path d="M79.546 92.873l-6.267-.763.564-4.636 6.267.763zM101.378 104.682l-24.057-2.928.183-1.503 24.057 2.928zM100.982 107.942l-17.541-2.136.122-1 17.541 2.135z"/></g><path fill="url(#c)" transform="rotate(-83.06 115.803 109.78)" d="M100.025 84.106h31.555v51.346h-31.555z"/><path fill="#FAF8E4" d="M89.197 121.107l3.558-29.233 49.242 5.994-3.559 29.232z"/><g opacity=".6" fill="#199473"><path d="M100.317 99.768l-6.267-.762.564-4.637 6.267.763zM122.149 111.578l-24.057-2.929.183-1.503 24.057 2.928zM121.745 114.836l-17.541-2.135.121-1 17.542 2.135z"/></g><path fill="url(#d)" transform="rotate(-83.06 80.057 119.395)" d="M58.67 84.596h42.774v69.597H58.67z"/><path fill="#FFF" d="M43.997 134.741l4.824-39.63 66.746 8.125-4.824 39.63z"/><g opacity=".6" fill="#199473"><path d="M59.065 105.815l-8.493-1.034.765-6.282 8.493 1.033zM88.655 121.827l-32.612-3.97.249-2.038 32.61 3.97zM88.12 126.242l-23.778-2.894.165-1.36 23.78 2.894z"/></g><path fill="url(#e)" transform="rotate(-83.06 108.21 128.734)" d="M86.823 93.936h42.773v69.597H86.823z"/><path fill="#FFF" d="M72.145 144.089l4.824-39.63 66.746 8.125-4.824 39.629z"/><g opacity=".6" fill="#199473"><path d="M87.215 115.161l-8.493-1.034.765-6.283 8.493 1.034zM116.805 131.173l-32.611-3.97.248-2.038 32.611 3.97zM116.27 135.588l-23.779-2.894.166-1.36 23.78 2.894z"/></g><path d="M107.835 65.449A36.955 36.955 0 0 0 93.7 68.247a37.074 37.074 0 0 1 42.346 36.695v58.848h8.863v-61.267c0-20.476-16.598-37.074-37.074-37.074z" fill="#000" opacity=".2"/><path d="M38.926 152.09h106.387v12.898H26.029c0-7.123 5.774-12.897 12.897-12.897z" fill="#199473"/><path d="M38.926 152.09h106.387v12.898H26.029c0-7.123 5.774-12.897 12.897-12.897z" fill="#FFF" opacity=".2"/><path fill="url(#f)" d="M270.523 29.045l-1.223.597.14-.251-.107.033.153-.111L285.955 0l8.42 7.181 7.226 6.687-2.074 1.013 2.329 4.11z"/><path fill="#199473" d="M293.543 7.947l6.601 6.123-29.926 14.877 15.926-20.412z"/><path fill="#000" opacity=".2" d="M293.543 7.947l6.601 6.123-29.926 14.877 15.926-20.412z"/><path fill="#199473" d="M285.84 1.379l-15.622 27.568 23.325-21z"/><path fill="#199473" d="M300.337 18.807l-30.086 9.938L295.399 9.97z"/><path fill="url(#g)" d="M50.07 35.79l1.967.305-.304-.288h.168l-.263-.091L15.893 1.819 7.218 15.51 0 28l3.342.519-1.482 6.765z"/><path fill="#199473" d="M8.716 16.222L2.123 27.65l48.33 7.869-31.128-21.675z"/><path fill="#000" opacity=".2" d="M8.716 16.222L2.123 27.65l48.33 7.869-31.128-21.675z"/><path fill="#199473" d="M16.654 3.7l33.799 31.819L8.716 16.222z"/><path fill="#199473" d="M3.905 34.366l46.416.89-43.33-15.392z"/></g></svg>
